<svg xmlns="http://www.w3.org/2000/svg" xmlns:xlink="http://www.w3.org/1999/xlink" version="1.1" style="" xml:space="preserve" width="512.0009765625" height="512.0009765625"><rect id="backgroundrect" width="100%" height="100%" x="0" y="0" fill="none" stroke="none"/>


























<g class="currentLayer" style=""><title>Layer 1</title><path style="" d="M447.99,59.672V42.005c0-17.673-14.327-31.999-31.999-31.999H95.998  c-17.673,0-31.999,14.327-31.999,31.999v427.991c0,17.673,14.327,31.999,31.999,31.999h319.993  c17.673,0,31.999-14.327,31.999-31.999V338.86V59.672z" id="svg_1" class="" fill="#dcffb9" fill-opacity="1"/><path d="M447.99,317.703c-5.522,0-10,4.477-10,10v142.292c0,12.131-9.869,22-22,22H95.998c-12.131,0-22-9.869-22-22v-22h24.167  c18.748,0,33.999-15.252,33.999-33.999s-15.252-33.999-33.999-33.999h-1c-5.522,0-10,4.477-10,10s4.478,10,10,10h1  c7.72,0,14,6.28,14,14c0,7.72-6.28,14-14,14H73.998V290.127h24.167c18.748,0,33.999-15.252,33.999-33.999  s-15.252-33.999-33.999-33.999h-1c-5.522,0-10,4.477-10,10c0,5.523,4.478,10,10,10h1c7.72,0,14,6.28,14,14c0,7.72-6.28,14-14,14  H73.998v-137.87h24.167c18.748,0,33.999-15.252,33.999-33.999s-15.252-33.999-33.999-33.999h-1c-5.522,0-10,4.477-10,10  c0,5.523,4.478,10,10,10h1c7.72,0,14,6.28,14,14s-6.28,14-14,14H73.998V42.005c0-12.131,9.869-22,22-22h319.993  c12.131,0,22,9.869,22,22v17.667c0,5.523,4.478,10,10,10s10-4.477,10-10V42.005c0-23.159-18.841-41.999-41.999-41.999H95.998  c-23.159,0-41.999,18.841-41.999,41.999v70.252h-20c-7.72,0-14-6.28-14-14s6.28-14,14-14c5.522,0,10-4.477,10-10  c0-5.523-4.478-10-10-10C15.252,64.258,0,79.51,0,98.258s15.252,33.999,33.999,33.999h20v137.87h-20c-7.72,0-14-6.28-14-14  c0-7.72,6.28-14,14-14c5.522,0,10-4.477,10-10c0-5.523-4.478-10-10-10C15.252,222.128,0,237.38,0,256.127  s15.252,33.999,33.999,33.999h20v137.87h-20c-7.72,0-14-6.28-14-14c0-7.72,6.28-14,14-14c5.522,0,10-4.477,10-10s-4.478-10-10-10  C15.252,379.998,0,395.249,0,413.997s15.252,33.999,33.999,33.999h20v22c0,23.159,18.841,41.999,41.999,41.999h319.993  c23.158,0,41.999-18.841,41.999-41.999V327.703C457.99,322.18,453.512,317.703,447.99,317.703z" id="svg_2"/><path d="M229.925,379.177c-1.86,1.87-2.93,4.44-2.93,7.07c0,2.64,1.069,5.21,2.93,7.08c1.86,1.86,4.44,2.92,7.07,2.92  c2.63,0,5.21-1.06,7.069-2.92c1.86-1.87,2.931-4.44,2.931-7.08c0-2.63-1.07-5.2-2.931-7.07c-1.859-1.86-4.439-2.93-7.069-2.93  C234.354,376.248,231.785,377.318,229.925,379.177z" id="svg_3"/><path d="M159.2,376.252c-5.522,0-10,4.477-10,10s4.478,10,10,10h39.796c5.522,0,10-4.477,10-10s-4.478-10-10-10H159.2z" id="svg_4"/><path d="M265.994,298.253c0-5.523-4.478-10-10-10H159.2c-5.522,0-10,4.477-10,10s4.478,10,10,10h96.795  C261.516,308.253,265.994,303.776,265.994,298.253z" id="svg_5"/><path d="M304.019,210.255c0-5.523-4.478-10-10-10H159.2c-5.522,0-10,4.477-10,10s4.478,10,10,10h134.82  C299.543,220.255,304.019,215.778,304.019,210.255z" id="svg_6"/><path d="M339.044,122.257c0-5.523-4.478-10-10-10H159.2c-5.522,0-10,4.477-10,10c0,5.523,4.478,10,10,10h169.844  C334.566,132.257,339.044,127.78,339.044,122.257z" id="svg_7"/><path style="" d="M281.915,354.254v93.742l81.183-46.871l135.523-234.733c6.934-12.01,2.819-27.366-9.191-34.3  l-37.692-21.762c-12.01-6.934-27.366-2.819-34.3,9.191L281.915,354.254z" id="svg_8" class="" fill-opacity="1" fill="#507c5c"/><path style="fill:#FF5A5A;" d="M489.431,132.092l-37.692-21.762c-12.01-6.934-27.366-2.819-34.3,9.191l-19.883,34.437l3.373,2.979  l72.165,41.665l5.319,2.791l20.208-35C505.555,154.382,501.44,139.025,489.431,132.092z" id="svg_9"/><polygon style="fill:#FAE196;" points="363.098,401.125 281.915,354.254 281.915,447.996 " id="svg_10" class=""/><polygon style="" points="319.10655737575144,421.4123470854465 273.0622863769531,394.8287264891587 273.0622863769531,447.9960021972656 " class="" id="svg_27" fill="#000000" fill-opacity="1"/><path d="M510.789,144.75c-2.427-9.059-8.236-16.63-16.358-21.319l-37.691-21.763c-16.767-9.679-38.281-3.913-47.961,12.852  L273.256,349.254c-0.878,1.52-1.34,3.245-1.34,5v93.742c0,3.573,1.906,6.874,5,8.66c1.547,0.893,3.273,1.34,5,1.34  s3.453-0.447,5-1.34l81.183-46.871c1.521-0.877,2.782-2.14,3.66-3.66l135.522-234.733C511.97,163.27,513.217,153.809,510.789,144.75  z M331.051,408.081l-39.135-22.42v-14.088l51.184,29.55L331.051,408.081z M291.916,408.711l19.097,10.94l-19.097,11.026V408.711z   M359.438,387.466l-63.863-36.871L400.77,168.391l63.863,36.871L359.438,387.466z M489.961,161.391l-15.329,26.55l-63.863-36.871  l15.329-26.549c4.166-7.215,13.426-9.695,20.642-5.531l37.691,21.762c3.495,2.018,5.995,5.276,7.04,9.175  C492.516,153.826,491.979,157.896,489.961,161.391z" id="svg_11" class=""/><g id="svg_12">
</g><g id="svg_13">
</g><g id="svg_14">
</g><g id="svg_15">
</g><g id="svg_16">
</g><g id="svg_17">
</g><g id="svg_18">
</g><g id="svg_19">
</g><g id="svg_20">
</g><g id="svg_21">
</g><g id="svg_22">
</g><g id="svg_23">
</g><g id="svg_24">
</g><g id="svg_25">
</g><g id="svg_26">
</g></g></svg>